Patient4_TMGait_0pt6_01_right_22_EMG.mot
version=1
nRows=19
nColumns=33
inDegrees=no
endheader
time	1LAddLong	2LGlutMax	3LGlutMed	4LIliopsoas	5LSemiMemb	6LBicFemLong	7LRecFem	8LVastMed	9LVastLat	10LGasMed	11LTibAnt	12lTibPost	13LPeroneusLong	14LSol	15LExtDigLong	16LFlexDigLong	17RAddLong	18RGlutMax	19RGlutMed	20RIliopsoas	21RSemiMemb	22RBicFemLong	23RRecFem	24RVastMed	25RVastLat	26RGasMed	27RTibAnt	28RTibPost	29RPeroneusLong	30RSol	31RExtDigLong	32RFlexDigLong
27.47	0.019836	0.052338	-0.16724	0.028839	0.099792	0.021667	0.18295	0.002441	-0.063782	-0.027771	0.027618	0.00824	-0.95795	0.1413	-0.038605	-0.070953	0.010986	0.025024	-0.042725	0.10132	0.055237	0.001831	-0.027313	-0.068512	0.000305	-0.021057	0.088959	-0.007782	0.058594	0.018921	-0.001678	-0.009613
27.471	0.013123	-0.019531	-0.1001	0.032806	0.063019	0.16892	0.23773	-0.001526	-0.092621	0.070648	0.002594	0.007477	-0.073242	0.019684	-0.19791	0.28168	0.014648	-0.079498	-0.048828	0.075989	0.056763	-0.009766	0.007477	-0.079498	0.005646	-0.000153	0.085754	-0.013733	0.11169	0.041199	0.000916	-0.006866
27.472	0.008698	-0.025482	-0.21149	0.015106	0.029755	0.11322	0.25101	0.009155	-0.12817	0.12604	-0.033875	0.002594	-0.085297	-0.073242	-0.25681	0.069427	0.014954	-0.070801	-0.062408	0.050049	0.035553	-0.039673	0.040436	-0.062714	0.010681	0.016632	0.13336	-0.014191	-0.37323	0.067444	-0.004272	-0.007782
27.473	0.006866	0.016785	0.071716	-0.009308	0.007935	0.016785	0.19058	0.012665	-0.1535	-0.078125	0.011902	-0.000153	-0.11108	-0.05188	-0.10056	-0.14862	0.019073	-0.04837	0.045929	0.058136	0.016174	-0.007782	0.022278	-0.059967	0.02182	-0.007629	0.2034	-0.006561	-0.7341	0.005798	-0.004578	-0.007935
27.474	0.016327	0.031891	0.13382	-0.033417	0.013885	-0.016174	0.13825	0.016785	-0.12375	-0.2829	-0.000458	-0.009308	0.4303	-0.083008	-0.011749	-0.11993	0.016479	-0.048676	0.097809	0.004425	-0.016479	0.012054	0.065002	-0.10239	-0.011139	-0.015106	0.18249	0.005188	-0.6102	-0.081329	0.001678	-0.002136
27.475	0.027771	0.03067	0.14038	-0.012665	0.045929	-0.018158	0.01358	0.009308	-0.11719	-0.82352	-0.013733	0.006409	-0.022736	-0.14923	-0.02655	-0.070801	0.005798	-0.08194	0.061035	-0.00061	-0.039215	0.005646	0.026245	-0.054321	0.000153	-0.024261	0.061798	0.002594	0.48706	-0.13214	0.000763	-0.005646
27.476	0.007324	0.013885	0.081635	0.022888	0.042419	0.01297	-0.004272	0.014191	-0.084229	-0.58441	0.006256	0.007782	0.13534	-0.1619	0.04776	-0.013733	0	-0.084991	-0.024261	-0.08728	-0.025482	0.002899	0.022888	-0.053711	-0.013428	-0.001068	-0.014954	-0.003204	1.002	-0.13336	-0.00061	-0.008545
27.477	0.011139	0.026703	-0.11643	0.053558	0.029602	0.014191	0.074615	0.014954	-0.072937	-0.061646	0.016479	0.000916	0.1561	-0.14099	0.063782	0.005646	-0.018005	-0.10468	-0.037842	-0.070343	0.089722	-0.012665	0.002136	-0.074158	0.009155	0.010376	-0.07431	-0.008392	0.076447	-0.096588	-0.00351	-0.011749
27.478	0.005798	0.019684	-0.15732	0.027618	0.024261	-0.011444	0.13901	-0.015717	0.029602	0.28717	-0.001526	0.001373	0.10635	-0.345	-0.025482	-0.013428	-0.06958	-0.11231	-0.07431	-0.084229	0.10651	-0.005493	-0.05127	-0.08728	0.017548	0.000153	-0.242	-0.007324	-0.42419	-0.11337	-0.005035	-0.007935
27.479	0.00885	0.020905	-0.11185	-0.015106	0.006104	-0.013275	0.1593	-0.021667	-0.040741	0.29358	0.018158	-0.000458	0.13748	-0.45883	-0.09491	-0.017548	-0.049744	-0.053253	0.00351	-0.086975	0.016479	0.019836	-0.056458	-0.070038	0.01297	0.01358	0.005493	-0.006561	-0.23239	-0.16251	-0.007629	-0.011597
27.48	0.00885	-0.003204	0.021362	-0.018005	0.026703	-0.002136	0.10346	-0.014191	-0.041504	0.13321	0.03006	-0.002899	0.10071	-0.057678	-0.012665	-0.005188	-0.040741	-0.034485	0.13931	-0.032806	-0.13702	0.026703	-0.026093	-0.056915	0.000458	0.005646	0.38116	-0.009308	-0.11475	-0.13992	-0.003815	-0.015869
27.481	0.006561	-0.014801	-0.010071	-0.004578	0.021515	-0.011597	0.096588	-0.00885	-0.006409	0.032806	0.040131	0.008545	-0.23422	0.10071	-0.005341	0.019226	-0.018158	-0.041962	0.15518	0.034332	-0.14038	0.081787	-0.018158	-0.049896	0.000153	0.00824	0.47424	-0.007019	-0.084381	-0.10422	-0.003052	-0.016022
27.482	0.02182	-0.026093	-0.082855	0.002441	0.019073	-0.00946	-0.007782	-0.005493	0.028076	0.052032	0.06012	0.014038	-0.90591	-0.046234	0.026245	0.022736	-0.004425	-0.058746	-0.087128	0.050964	-0.026398	0.080261	-0.019226	-0.034332	-0.012054	-0.000763	0.24597	-0.005646	0.040283	-0.069122	-0.001373	-0.016022
27.483	0.014038	-0.0383	-0.06897	0.016937	0.023651	-0.007172	0.020294	0.000305	0.031891	0.056305	0.016327	0.00824	-0.2034	0.10147	0.00351	0.009766	-0.006256	-0.036316	-0.12497	0.006104	0.14267	0.042419	-0.001831	-0.031281	0.001221	0.000763	-0.3508	-0.009766	0.6543	-0.083008	-0.008545	-0.011902
27.484	0.010681	-0.052338	-0.042877	-0.001221	0.010681	0.005341	0.041046	0.00412	-0.031586	-0.067444	0.006104	-0.001526	-0.052948	0.23422	-0.06958	0.01358	-0.009766	-0.017853	0.053864	-0.048065	0.055847	0.048065	-0.000305	-0.010834	-0.010834	-0.011902	-0.61661	-0.00946	0.59311	-0.034027	-0.003052	-0.016785
27.485	-0.000305	0.001678	-0.12787	-0.023804	0.020294	-0.00061	0.071106	-0.00946	-0.020447	-0.080719	0.054932	-0.010223	0.68542	0.35263	-0.026245	0.014648	0.001068	-0.063171	-0.055084	-0.05722	0.001678	-0.001068	0.019073	-0.056152	0.000763	-0.018616	-0.41596	-0.009003	-0.21042	-0.009613	-0.00351	-0.00824
27.486	0.007629	0.015106	-0.1471	-0.018463	0.017548	-0.005341	0.088043	-0.006561	-0.031738	-0.071411	0.03006	-0.009003	1.0106	0.36072	0.043335	0.006256	0.008392	-0.015564	-0.1648	0.029907	-0.023041	-0.005035	0.001984	-0.037384	-0.000916	0.000916	-0.099792	-0.00885	-0.30899	-0.014648	-0.003967	0.000916
27.487	0.000763	0.018005	-0.049438	0.003662	0.014954	-0.00412	0.076904	-0.004272	-0.051727	-0.019989	0.025635	-0.003815	0.37003	0.25986	-0.039063	-0.000153	0.016632	0.005188	-0.22247	0.17303	-0.069275	0.031281	-0.039215	-0.03891	0.013885	0.004425	0.2771	-0.010376	0.11398	-0.040283	-0.006409	-0.000305
27.488	0.003662	-0.02243	0.019684	0.01297	0.001221	-0.00351	0.063629	-0.001984	-0.064392	-0.045624	0.038147	-0.003967	-0.42419	0.28488	-0.10254	0.00351	0.041504	-0.014648	-0.24124	0.13046	0.006561	0.06073	-0.028992	-0.070038	0.006866	-0.002899	0.42511	-0.010071	-0.29419	-0.060272	0.001221	-0.005951
